<svg fill="#000000" xmlns="http://www.w3.org/2000/svg"  viewBox="0 0 64 64" width="48px" height="48px"><path d="M32,54c-0.282,0-0.564-0.06-0.826-0.179C18.179,47.923,8,35.387,8,25.281C8,17.958,13.965,12,21.297,12	c4.098,0,7.688,1.871,10.703,5.571C35.016,13.871,38.605,12,42.703,12C50.035,12,56,17.958,56,25.281	c0,10.105-10.179,22.642-23.174,28.54C32.564,53.94,32.282,54,32,54z M21.297,16C16.171,16,12,20.164,12,25.281	c0,7.267,7.622,18.558,20,24.511c12.378-5.953,20-17.244,20-24.511C52,20.164,47.829,16,42.703,16c-3.479,0-6.428,1.985-9.014,6.07	C33.323,22.649,32.686,23,32,23s-1.323-0.351-1.689-0.93C27.725,17.985,24.776,16,21.297,16z"/></svg>