<svg fill="#000000" xmlns="http://www.w3.org/2000/svg"  viewBox="0 0 64 64" width="48px" height="48px"><path d="M 32 10 C 19.869 10 10 19.869 10 32 C 10 44.131 19.869 54 32 54 C 44.131 54 54 44.131 54 32 C 54 19.869 44.131 10 32 10 z M 32 14 C 41.925 14 50 22.075 50 32 C 50 41.925 41.925 50 32 50 C 22.075 50 14 41.925 14 32 C 14 22.075 22.075 14 32 14 z M 29.960938 20.669922 C 29.533938 20.669922 29.207031 20.971828 29.207031 21.423828 L 29.207031 23.105469 L 28.427734 23.105469 C 27.548734 23.105469 26.970703 23.695219 26.970703 24.574219 L 26.970703 39.203125 C 26.970703 40.082125 27.547734 40.672875 28.427734 40.671875 L 29.207031 40.671875 L 29.207031 42.355469 C 29.207031 42.807469 29.533938 43.107422 29.960938 43.107422 C 30.387938 43.107422 30.712891 42.807469 30.712891 42.355469 L 30.712891 40.671875 L 32.470703 40.671875 L 32.470703 42.355469 C 32.470703 42.807469 32.797609 43.107422 33.224609 43.107422 C 33.651609 43.107422 33.976562 42.807469 33.976562 42.355469 L 33.976562 40.634766 C 37.153562 40.345766 39 38.576281 39 35.738281 C 39 33.402281 37.468031 31.719969 35.082031 31.417969 L 35.082031 31.318359 C 36.777031 31.016359 38.121094 29.309281 38.121094 27.488281 C 38.121094 25.127281 36.487563 23.48225 33.976562 23.15625 L 33.976562 21.423828 C 33.976562 20.971828 33.651609 20.669922 33.224609 20.669922 C 32.797609 20.669922 32.470703 20.971828 32.470703 21.423828 L 32.470703 23.105469 L 30.712891 23.105469 L 30.712891 21.423828 C 30.712891 20.971828 30.387937 20.669922 29.960938 20.669922 z M 29.230469 25.089844 L 32.521484 25.089844 C 34.631484 25.089844 35.849609 25.993281 35.849609 27.738281 C 35.849609 29.647281 34.41775 30.626953 31.84375 30.626953 L 29.230469 30.626953 L 29.230469 25.089844 z M 29.230469 32.611328 L 32.457031 32.611328 C 35.244031 32.611328 36.701172 33.604672 36.701172 35.638672 C 36.701172 37.672672 35.283875 38.689453 32.671875 38.689453 L 29.230469 38.689453 L 29.230469 32.611328 z"/></svg>