<svg width="1280" height="720" viewBox="0 0 1280 720" fill="none" xmlns="http://www.w3.org/2000/svg">
<g clip-path="url(#clip0_1_2)">
<path d="M849.816 507.924L767.454 511.97L803.339 442.315L849.816 507.924Z" fill="#DBEAFE"/>
<path d="M839.213 434.444C833.135 441.53 824.504 445.916 815.207 446.643C805.911 447.37 796.705 444.38 789.603 438.325L749.282 403.823C742.222 397.73 737.847 389.09 737.111 379.783C736.374 370.476 739.335 361.253 745.35 354.122C751.42 347.024 760.054 342.63 769.355 341.903C778.656 341.177 787.864 344.178 794.959 350.248L835.28 384.744C842.342 390.836 846.717 399.475 847.454 408.783C848.19 418.091 845.229 427.314 839.213 434.444Z" fill="#93C5FD"/>
<path d="M1055.22 369.802C1031.57 345.813 999.38 332.216 965.729 332.001C932.077 331.786 899.718 344.97 875.766 368.655C875.391 369.026 875.178 369.531 875.175 370.059C875.171 370.587 875.377 371.094 875.747 371.47C876.117 371.846 876.621 372.059 877.147 372.063C877.674 372.066 878.181 371.86 878.556 371.489L1051.28 546.775C1051.1 546.959 1050.95 547.177 1050.84 547.418C1050.74 547.66 1050.69 547.919 1050.69 548.181C1050.68 548.443 1050.73 548.704 1050.83 548.947C1050.93 549.19 1051.07 549.411 1051.26 549.597C1051.44 549.784 1051.66 549.932 1051.9 550.034C1052.14 550.135 1052.4 550.188 1052.67 550.189C1052.93 550.19 1053.19 550.139 1053.43 550.039C1053.67 549.939 1053.89 549.792 1054.08 549.607C1078.02 525.911 1091.59 493.659 1091.8 459.941C1092.02 426.223 1078.86 393.801 1055.22 369.802H1055.22Z" fill="#DBEAFE"/>
<path d="M1002.27 579.967L1123.3 521.058C1131.22 517.207 1140.34 516.664 1148.66 519.55C1156.98 522.437 1163.81 528.515 1167.66 536.449C1171.5 544.384 1172.04 553.524 1169.16 561.859C1166.28 570.194 1160.22 577.042 1152.3 580.896L1031.27 639.804C1023.35 643.656 1014.23 644.199 1005.91 641.312C997.589 638.426 990.755 632.348 986.909 624.414C983.064 616.479 982.523 607.339 985.403 599.004C988.284 590.668 994.35 583.821 1002.27 579.967V579.967Z" fill="#93C5FD"/>
<path d="M1052.61 548.191C1003.49 596.751 924.436 596.22 875.971 547.063C827.507 497.906 828.036 418.632 877.097 370.072" fill="white"/>
<path d="M964.874 586.264H964.03C947.362 586.201 930.873 582.827 915.515 576.339C900.158 569.85 886.236 560.375 874.556 548.462C825.395 498.6 825.908 417.939 875.698 368.657C875.884 368.472 876.104 368.325 876.346 368.225C876.588 368.125 876.847 368.074 877.109 368.075C877.37 368.076 877.629 368.129 877.871 368.23C878.112 368.332 878.331 368.48 878.515 368.666C878.699 368.853 878.844 369.074 878.943 369.317C879.041 369.56 879.091 369.82 879.088 370.083C879.086 370.345 879.032 370.604 878.929 370.845C878.827 371.087 878.678 371.305 878.49 371.489C830.258 419.228 829.761 497.364 877.381 545.665C925.002 593.967 1002.98 594.457 1051.22 546.775C1051.59 546.407 1052.1 546.203 1052.62 546.207C1053.15 546.212 1053.65 546.425 1054.02 546.8C1054.39 547.175 1054.6 547.681 1054.59 548.207C1054.59 548.733 1054.38 549.237 1054.01 549.609C1030.31 573.165 998.256 586.346 964.874 586.264V586.264Z" fill="#3B82F6"/>
<path d="M1095.8 670.983C1093.82 670.984 1091.86 670.594 1090.02 669.834C1088.19 669.074 1086.53 667.96 1085.13 666.555C1083.72 665.151 1082.61 663.483 1081.85 661.647C1081.1 659.812 1080.71 657.845 1080.71 655.858V625.342C1080.71 623.356 1081.1 621.389 1081.85 619.553C1082.61 617.718 1083.72 616.05 1085.13 614.645C1086.53 613.241 1088.19 612.127 1090.02 611.367C1091.86 610.607 1093.82 610.216 1095.8 610.217H1126.26C1128.24 610.216 1130.2 610.607 1132.04 611.367C1133.87 612.127 1135.53 613.241 1136.93 614.645C1138.34 616.05 1139.45 617.718 1140.21 619.553C1140.96 621.389 1141.35 623.356 1141.35 625.342V655.858C1141.35 657.845 1140.96 659.812 1140.21 661.647C1139.45 663.483 1138.34 665.151 1136.93 666.555C1135.53 667.96 1133.87 669.074 1132.04 669.834C1130.2 670.594 1128.24 670.984 1126.26 670.983H1095.8Z" fill="white"/>
<path d="M1126.26 672.973H1095.8C1091.27 672.968 1086.93 671.164 1083.73 667.955C1080.53 664.746 1078.73 660.396 1078.72 655.858V625.343C1078.7 623.11 1079.13 620.896 1079.98 618.83C1080.82 616.765 1082.07 614.889 1083.65 613.312C1085.23 611.697 1087.13 610.416 1089.21 609.543C1091.3 608.67 1093.54 608.222 1095.8 608.227H1126.26C1130.79 608.232 1135.13 610.037 1138.33 613.246C1141.53 616.454 1143.33 620.805 1143.34 625.343V655.858C1143.33 660.396 1141.53 664.746 1138.33 667.955C1135.13 671.164 1130.79 672.968 1126.26 672.973V672.973ZM1095.8 612.207C1094.06 612.204 1092.34 612.548 1090.74 613.219C1089.14 613.89 1087.69 614.875 1086.47 616.115C1085.26 617.322 1084.3 618.759 1083.65 620.34C1083.01 621.922 1082.68 623.617 1082.69 625.327V655.858C1082.7 659.341 1084.08 662.679 1086.54 665.142C1088.99 667.604 1092.33 668.989 1095.8 668.993H1126.26C1129.73 668.989 1133.07 667.604 1135.52 665.142C1137.98 662.679 1139.36 659.341 1139.37 655.858V625.343C1139.36 621.86 1137.98 618.521 1135.52 616.059C1133.07 613.596 1129.73 612.211 1126.26 612.207H1095.8Z" fill="#3B82F6"/>
<path d="M1089.91 448.185L1102.41 441.507L1140.03 512.228L1127.53 518.906L1089.91 448.185Z" fill="white"/>
<path d="M1127.53 520.896C1127.17 520.896 1126.82 520.798 1126.51 520.613C1126.2 520.427 1125.95 520.161 1125.78 519.842L1088.15 449.121C1088.03 448.891 1087.96 448.638 1087.93 448.378C1087.91 448.118 1087.93 447.855 1088.01 447.605C1088.08 447.355 1088.21 447.122 1088.37 446.92C1088.54 446.719 1088.74 446.551 1088.97 446.428L1101.48 439.751C1101.94 439.503 1102.49 439.45 1102.99 439.603C1103.49 439.757 1103.92 440.105 1104.16 440.571L1141.79 511.292C1141.91 511.522 1141.99 511.775 1142.01 512.035C1142.04 512.295 1142.01 512.558 1141.93 512.808C1141.86 513.058 1141.73 513.29 1141.57 513.492C1141.4 513.694 1141.2 513.861 1140.97 513.984L1128.46 520.662C1128.18 520.816 1127.86 520.896 1127.53 520.896V520.896ZM1092.59 449.005L1128.35 516.213L1137.34 511.408L1101.59 444.199L1092.59 449.005Z" fill="#3B82F6"/>
<path d="M901.434 627.641L944.717 584.273L988 627.641L944.717 671.009L901.434 627.641Z" fill="white"/>
<path d="M944.717 673C944.456 673 944.197 672.949 943.956 672.849C943.715 672.749 943.496 672.602 943.312 672.417L900.029 629.049C899.845 628.864 899.698 628.645 899.599 628.403C899.499 628.162 899.447 627.903 899.447 627.641C899.447 627.38 899.499 627.121 899.599 626.88C899.698 626.638 899.845 626.419 900.029 626.234L943.312 582.866C943.692 582.507 944.194 582.306 944.717 582.306C945.239 582.306 945.741 582.507 946.121 582.866L989.404 626.234C989.589 626.419 989.735 626.638 989.835 626.88C989.935 627.121 989.986 627.38 989.986 627.641C989.986 627.903 989.935 628.162 989.835 628.403C989.735 628.645 989.589 628.864 989.404 629.049L946.121 672.417C945.937 672.602 945.718 672.749 945.477 672.849C945.236 672.949 944.977 673 944.717 673V673ZM904.242 627.642L944.716 668.195L985.19 627.642L944.716 587.088L904.242 627.642Z" fill="#3B82F6"/>
</g>
<g clip-path="url(#clip1_1_2)">
<path d="M854.561 344H685.01C684.477 344 683.966 343.787 683.589 343.409C683.212 343.031 683 342.518 683 341.983C683 341.448 683.212 340.935 683.589 340.557C683.966 340.179 684.477 339.966 685.01 339.966H854.561C855.095 339.966 855.606 340.179 855.983 340.557C856.36 340.935 856.572 341.448 856.572 341.983C856.572 342.518 856.36 343.031 855.983 343.409C855.606 343.787 855.095 344 854.561 344Z" fill="#3B82F6"/>
<path d="M974.99 211.017H856.438L800.144 341.983H918.696L974.99 211.017Z" fill="white"/>
<path d="M918.696 344H800.144C799.811 344 799.483 343.917 799.19 343.758C798.897 343.6 798.648 343.371 798.465 343.092C798.281 342.812 798.17 342.492 798.141 342.159C798.112 341.826 798.166 341.491 798.298 341.184L854.592 210.218C854.747 209.856 855.005 209.548 855.333 209.332C855.661 209.115 856.045 209 856.438 209H974.99C975.323 209 975.651 209.083 975.944 209.242C976.237 209.4 976.486 209.629 976.669 209.908C976.852 210.188 976.963 210.508 976.993 210.841C977.022 211.174 976.968 211.509 976.836 211.816L920.542 342.782C920.387 343.144 920.129 343.452 919.801 343.668C919.473 343.885 919.089 344 918.696 344V344ZM803.2 339.966H917.374L971.933 213.034H857.76L803.2 339.966Z" fill="#3B82F6"/>
<path d="M969.963 224.732H851.479C850.946 224.732 850.434 224.52 850.057 224.141C849.68 223.763 849.468 223.25 849.468 222.715C849.468 222.18 849.68 221.667 850.057 221.289C850.434 220.911 850.946 220.698 851.479 220.698H969.963C970.497 220.698 971.008 220.911 971.385 221.289C971.762 221.667 971.974 222.18 971.974 222.715C971.974 223.25 971.762 223.763 971.385 224.141C971.008 224.52 970.497 224.732 969.963 224.732V224.732Z" fill="#3B82F6"/>
</g>
<g clip-path="url(#clip2_1_2)">
<path d="M273.127 404.672L230.331 209.628C229.851 207.467 228.646 205.533 226.914 204.147C225.182 202.761 223.027 202.006 220.806 202.006C219.518 202.002 218.243 202.251 217.053 202.741C215.863 203.23 214.782 203.949 213.871 204.856C212.961 205.763 212.24 206.841 211.749 208.027C211.259 209.214 211.008 210.485 211.012 211.768C211.013 212.486 211.08 213.202 211.214 213.908L248.71 385.215C249.954 390.742 253.05 395.682 257.489 399.22C261.928 402.757 267.444 404.68 273.127 404.672V404.672Z" fill="white"/>
<path d="M273.127 406.678C266.979 406.713 261.007 404.644 256.205 400.817C251.404 396.99 248.065 391.637 246.746 385.652L209.248 214.336L209.233 214.269C209.079 213.444 209.001 212.607 209 211.768C208.996 208.873 210.064 206.078 211.999 203.919C213.935 201.76 216.602 200.39 219.488 200.07C222.375 199.751 225.279 200.505 227.642 202.188C230.005 203.871 231.662 206.365 232.295 209.191L275.091 404.244C275.155 404.537 275.153 404.84 275.084 405.132C275.015 405.423 274.881 405.696 274.693 405.93C274.505 406.163 274.266 406.352 273.995 406.481C273.724 406.611 273.427 406.678 273.127 406.678V406.678ZM213.187 213.516L250.676 384.788C251.706 389.457 254.184 393.684 257.761 396.869C261.337 400.054 265.829 402.036 270.598 402.532L228.365 210.057C227.988 208.34 227.032 206.804 225.656 205.704C224.281 204.604 222.569 204.007 220.806 204.012C218.743 204.014 216.765 204.832 215.306 206.286C213.848 207.74 213.027 209.712 213.025 211.768C213.025 212.354 213.079 212.94 213.187 213.516V213.516Z" fill="#3B82F6"/>
<path d="M456.988 406.946L273.127 406.678C272.593 406.678 272.081 406.467 271.704 406.091C271.326 405.715 271.114 405.204 271.114 404.672C271.114 404.14 271.326 403.63 271.704 403.254C272.081 402.878 272.593 402.667 273.127 402.667L456.988 402.934C457.521 402.934 458.033 403.145 458.411 403.522C458.788 403.898 459 404.408 459 404.94C459 405.472 458.788 405.982 458.411 406.358C458.033 406.735 457.521 406.946 456.988 406.946V406.946Z" fill="#3B82F6"/>
<path d="M372.872 405.036L368.579 409.576C363.224 415.307 356.746 419.883 349.547 423.018C342.347 426.154 334.579 427.784 326.722 427.808C318.866 427.778 311.1 426.145 303.901 423.009C296.703 419.874 290.224 415.302 284.865 409.576L280.572 405.036H372.872Z" fill="white"/>
<path d="M326.722 429.814C310.326 429.814 294.942 423.116 283.403 410.958L279.11 406.415C278.84 406.13 278.66 405.772 278.592 405.387C278.524 405.001 278.571 404.604 278.727 404.244C278.882 403.884 279.14 403.578 279.469 403.363C279.797 403.148 280.181 403.033 280.574 403.033H372.872C373.265 403.033 373.649 403.148 373.977 403.363C374.306 403.578 374.564 403.884 374.719 404.244C374.875 404.604 374.922 405.001 374.854 405.387C374.786 405.772 374.606 406.13 374.336 406.415L370.043 410.955C364.488 416.869 357.781 421.592 350.332 424.834C342.883 428.077 334.85 429.771 326.722 429.814V429.814ZM285.234 407.041L286.33 408.2C297.098 419.55 311.444 425.802 326.722 425.802C334.301 425.759 341.792 424.177 348.737 421.151C355.681 418.125 361.934 413.719 367.112 408.202L368.21 407.041H285.234Z" fill="#3B82F6"/>
<path d="M280.572 670.994L284.865 666.648C290.334 661.119 296.85 656.729 304.036 653.733C311.222 650.737 318.933 649.195 326.722 649.196C334.511 649.195 342.222 650.737 349.408 653.733C356.594 656.729 363.11 661.119 368.579 666.648L372.872 670.994H280.572Z" fill="white"/>
<path d="M372.872 673H280.572C280.176 673 279.788 672.883 279.457 672.664C279.127 672.445 278.869 672.134 278.716 671.769C278.563 671.404 278.521 671.002 278.596 670.614C278.671 670.226 278.86 669.868 279.138 669.587L283.431 665.24C289.088 659.523 295.827 654.984 303.259 651.886C310.69 648.787 318.665 647.192 326.721 647.192C334.776 647.192 342.751 648.787 350.182 651.886C357.614 654.984 364.354 659.523 370.01 665.24L374.303 669.587C374.581 669.868 374.77 670.225 374.845 670.613C374.92 671.002 374.879 671.403 374.726 671.768C374.573 672.132 374.316 672.444 373.986 672.663C373.656 672.882 373.268 673 372.872 673ZM285.378 668.988H368.066L367.145 668.055C361.863 662.717 355.569 658.478 348.63 655.584C341.69 652.691 334.243 651.201 326.721 651.201C319.199 651.201 311.751 652.691 304.812 655.584C297.872 658.478 291.579 662.717 286.297 668.055L285.378 668.988Z" fill="#3B82F6"/>
<path d="M326.722 651.202C326.188 651.202 325.676 650.991 325.299 650.615C324.922 650.238 324.71 649.728 324.71 649.196V427.808C324.71 427.276 324.922 426.765 325.299 426.389C325.676 426.013 326.188 425.802 326.722 425.802C327.256 425.802 327.768 426.013 328.145 426.389C328.522 426.765 328.734 427.276 328.734 427.808V649.196C328.734 649.728 328.522 650.238 328.145 650.615C327.768 650.991 327.256 651.202 326.722 651.202Z" fill="#3B82F6"/>
</g>
<g clip-path="url(#clip3_1_2)">
<path d="M788.319 270C788.011 270 787.706 269.929 787.43 269.792C787.153 269.655 786.911 269.457 786.722 269.212C786.534 268.967 786.404 268.682 786.343 268.378C786.281 268.075 786.29 267.762 786.368 267.462C796.796 227.462 798.807 195.267 795.343 178.662C795.119 178.783 794.901 178.893 794.689 178.993C793.36 179.662 791.894 180.011 790.407 180.013C788.921 180.016 787.454 179.671 786.123 179.006C784.542 178.226 783.218 177.005 782.309 175.491C781.401 173.976 780.946 172.231 781 170.464C781.061 167.123 782.749 164.201 785.292 163.02C786.658 162.386 789.454 161.738 792.827 164.505C794.697 166.042 796.24 168.446 797.461 171.61C800.758 167.653 804.706 160.074 808.016 145.576C808.151 145.07 808.477 144.637 808.924 144.368C809.371 144.098 809.905 144.012 810.414 144.129C810.923 144.245 811.367 144.555 811.653 144.993C811.939 145.431 812.045 145.962 811.948 146.477C808.096 163.356 803.177 171.843 798.841 176.04C803.424 194.375 800.464 229.372 790.271 268.488C790.158 268.921 789.905 269.304 789.552 269.578C789.199 269.851 788.765 270 788.319 270V270ZM787.795 166.519C787.517 166.518 787.241 166.578 786.988 166.695C785.872 167.213 785.07 168.794 785.037 170.542C785.002 171.548 785.259 172.543 785.777 173.405C786.295 174.268 787.051 174.961 787.954 175.401C788.738 175.785 789.602 175.978 790.475 175.965C791.348 175.952 792.206 175.733 792.978 175.325C793.43 175.112 793.864 174.864 794.277 174.583C793.224 171.309 791.874 168.958 790.268 167.638C789.588 167.004 788.719 166.611 787.795 166.519V166.519Z" fill="#3B82F6"/>
</g>
<g clip-path="url(#clip4_1_2)">
<path d="M495.671 245.901L444.341 199.832L401.976 164.423C371.816 148.845 333.267 161.01 318.459 193.619L271.595 296.932L377.373 303.98L495.671 245.901Z" fill="white"/>
<path d="M377.373 305.994C377.329 305.994 377.284 305.994 377.239 305.989L271.461 298.941C271.137 298.919 270.823 298.819 270.545 298.649C270.268 298.479 270.037 298.244 269.87 297.964C269.703 297.685 269.607 297.369 269.588 297.044C269.57 296.718 269.631 296.394 269.766 296.097L316.629 192.784C320.135 184.969 325.201 177.957 331.514 172.182C337.828 166.407 345.256 161.992 353.339 159.209C361.403 156.402 369.95 155.258 378.467 155.846C386.983 156.435 395.293 158.743 402.898 162.632C403.028 162.7 403.151 162.782 403.264 162.876L445.629 198.285C445.647 198.3 445.665 198.316 445.682 198.332L497.01 244.4C497.255 244.62 497.442 244.897 497.555 245.207C497.669 245.517 497.704 245.85 497.659 246.176C497.614 246.503 497.49 246.814 497.297 247.081C497.104 247.348 496.849 247.564 496.554 247.709L378.256 305.789C377.981 305.924 377.679 305.994 377.373 305.994V305.994ZM274.625 295.115L376.971 301.935L492.107 245.407L443.026 201.359L400.86 166.116C393.758 162.519 386.008 160.391 378.07 159.859C370.131 159.327 362.167 160.401 354.651 163.017C347.085 165.624 340.131 169.758 334.221 175.165C328.31 180.572 323.568 187.136 320.286 194.453L274.625 295.115Z" fill="#3B82F6"/>
<path d="M521.981 125.566C527.593 118.16 530.542 109.07 530.35 99.7711L457.644 72.3438L438.004 118.953L401.943 164.484L419.684 198.452C420.923 200.9 422.826 202.948 425.174 204.359C426.783 205.313 428.563 205.939 430.413 206.202C432.263 206.465 434.147 206.36 435.956 205.892C437.765 205.424 439.465 204.604 440.958 203.477C442.451 202.35 443.707 200.939 444.656 199.325L461.076 180.155C466.861 181.92 472.963 182.382 478.946 181.508C484.93 180.634 490.647 178.446 495.689 175.1C500.731 171.754 504.974 167.332 508.114 162.151C511.255 156.97 513.215 151.158 513.856 145.129L521.981 125.566Z" fill="white"/>
<path d="M432.368 208.369C429.473 208.367 426.633 207.58 424.148 206.091C421.472 204.479 419.302 202.144 417.888 199.353L400.163 165.419C399.983 165.073 399.907 164.683 399.943 164.294C399.98 163.906 400.128 163.537 400.37 163.232L436.261 117.919L455.794 71.5624C455.996 71.0833 456.375 70.701 456.852 70.4958C457.329 70.2906 457.866 70.2783 458.352 70.4615L531.057 97.8888C531.433 98.0306 531.758 98.2822 531.989 98.6109C532.221 98.9396 532.349 99.3304 532.358 99.7328C532.543 109.393 529.51 118.84 523.738 126.577L515.822 145.635C515.122 151.818 513.098 157.777 509.888 163.103C506.678 168.429 502.358 172.996 497.224 176.492C492.09 179.988 486.263 182.331 480.142 183.359C474.021 184.387 467.751 184.076 461.761 182.448L446.29 200.506C444.836 202.904 442.792 204.887 440.353 206.263C437.914 207.64 435.164 208.365 432.365 208.368L432.368 208.369ZM404.328 164.71L421.467 197.518C422.537 199.636 424.181 201.409 426.211 202.632C427.586 203.455 429.111 203.996 430.696 204.221C432.281 204.446 433.896 204.353 435.445 203.945C437.002 203.544 438.465 202.838 439.75 201.868C441.035 200.899 442.116 199.685 442.933 198.296C442.992 198.196 443.059 198.101 443.134 198.012L459.554 178.843C459.808 178.547 460.142 178.331 460.517 178.221C460.891 178.112 461.289 178.115 461.662 178.228C467.164 179.907 472.967 180.346 478.657 179.516C484.347 178.685 489.785 176.604 494.58 173.422C499.375 170.24 503.411 166.035 506.398 161.108C509.385 156.181 511.25 150.653 511.859 144.919C511.88 144.725 511.928 144.535 512.003 144.355L520.129 124.791C520.195 124.633 520.281 124.483 520.384 124.347C525.431 117.666 528.22 109.546 528.347 101.167L458.743 74.9102L439.854 119.737C439.783 119.905 439.69 120.063 439.577 120.207L404.328 164.71Z" fill="#3B82F6"/>
<path d="M655.882 326.012C662.478 330.815 669.06 335.671 674.155 339.559C693.703 354.462 735.814 408.837 721.956 418.302C713.587 424.008 705.419 407.629 683.393 382.388C696.4 403.88 705.219 421.406 702.395 429.441L622.337 350.933L655.882 326.012Z" fill="white"/>
<path d="M702.395 431.454C701.869 431.455 701.365 431.249 700.989 430.88L620.931 352.373C620.723 352.169 620.562 351.922 620.458 351.65C620.355 351.378 620.311 351.086 620.331 350.795C620.351 350.504 620.434 350.221 620.573 349.966C620.713 349.71 620.906 349.488 621.14 349.314L654.685 324.394C655.029 324.139 655.444 324 655.872 323.998C656.299 323.996 656.716 324.13 657.061 324.382C664.613 329.882 670.772 334.452 675.37 337.956C692.125 350.729 727.179 394.203 726.704 412.494C726.617 415.872 725.399 418.386 723.085 419.966C718.226 423.28 713.846 420.416 710.971 417.972C707.175 414.745 702.758 409.214 697.165 402.211L696.433 401.294C703.91 415.786 706.22 424.608 704.288 430.11C704.149 430.503 703.893 430.843 703.554 431.083C703.214 431.324 702.809 431.453 702.393 431.452L702.395 431.454ZM625.426 351.144L700.914 425.17C700.437 415.667 690.617 398.206 681.676 383.432C681.415 383.001 681.324 382.487 681.422 381.993C681.52 381.498 681.8 381.058 682.206 380.76C682.611 380.463 683.114 380.328 683.614 380.384C684.113 380.439 684.574 380.681 684.905 381.061C691.001 388.046 695.942 394.234 700.303 399.692C711.397 413.582 716.484 419.598 720.828 416.636C722.029 415.816 722.639 414.426 722.692 412.389C723.104 396.519 690.637 354.651 672.941 341.164C668.611 337.86 662.881 333.607 655.896 328.512L625.426 351.144Z" fill="#3B82F6"/>
<path d="M684.525 383.72C679.349 383.72 669.595 381.047 649.743 370.89C645.083 368.509 640.232 366.615 635.541 364.781L635.448 364.745C635.2 364.65 634.974 364.507 634.782 364.324C634.59 364.141 634.436 363.922 634.329 363.68C634.221 363.437 634.163 363.175 634.157 362.91C634.151 362.644 634.197 362.38 634.293 362.133C634.389 361.885 634.533 361.66 634.717 361.468C634.9 361.277 635.12 361.123 635.363 361.017C635.605 360.911 635.867 360.854 636.131 360.85C636.396 360.846 636.659 360.894 636.905 360.992L636.998 361.028C641.957 362.872 646.819 364.965 651.568 367.299C679.518 381.598 685.784 379.995 687.039 379.162C687.976 378.533 687.99 378.057 687.995 377.854C688.096 374.311 678.087 366.74 668.403 359.418C660.28 353.274 651.071 346.31 643.168 338.655C642.974 338.473 642.818 338.253 642.709 338.01C642.6 337.766 642.54 337.503 642.533 337.236C642.527 336.969 642.573 336.703 642.67 336.454C642.766 336.206 642.912 335.978 643.097 335.786C643.282 335.594 643.503 335.441 643.748 335.335C643.992 335.23 644.256 335.174 644.522 335.172C644.788 335.169 645.052 335.22 645.299 335.32C645.546 335.421 645.77 335.57 645.959 335.759C653.686 343.242 662.79 350.125 670.822 356.202C683.215 365.576 692.17 372.348 692.011 377.968C691.976 379.225 691.47 381.036 689.266 382.515C687.845 383.392 686.191 383.813 684.525 383.72V383.72Z" fill="#3B82F6"/>
<path d="M780.656 549.065C789.962 552.24 803.049 551.05 810.394 549.877C819.165 548.475 836.465 544.335 845.207 542.761C864.663 539.258 881.293 546.319 888.992 562.9L802.026 618.416L725.504 626.808L741.17 653.391L708.07 671.986L681.653 626.56L780.656 549.065Z" fill="white"/>
<path d="M708.072 674C707.721 674 707.375 673.908 707.07 673.733C706.766 673.557 706.512 673.305 706.335 673L679.919 627.575C679.675 627.154 679.59 626.659 679.682 626.18C679.774 625.702 680.035 625.273 680.418 624.973L779.419 547.477C779.682 547.271 779.992 547.134 780.321 547.079C780.65 547.023 780.987 547.05 781.303 547.158C790.899 550.433 804.623 548.759 810.078 547.888C814.899 547.118 822.357 545.504 829.568 543.944C835.414 542.679 840.935 541.484 844.853 540.779C865.701 537.024 882.884 544.976 890.813 562.05C891.019 562.493 891.057 562.996 890.92 563.465C890.784 563.935 890.482 564.338 890.07 564.6L803.104 620.117C802.845 620.283 802.55 620.387 802.244 620.42L728.816 628.47L742.899 652.368C743.035 652.599 743.124 652.855 743.16 653.121C743.196 653.387 743.179 653.658 743.109 653.917C743.04 654.176 742.919 654.419 742.754 654.63C742.59 654.842 742.385 655.019 742.151 655.15L709.052 673.745C708.753 673.913 708.415 674.001 708.072 674V674ZM684.273 627.065L708.811 669.261L738.395 652.641L723.775 627.835C723.604 627.546 723.508 627.217 723.496 626.881C723.485 626.544 723.557 626.21 723.708 625.909C723.858 625.608 724.081 625.35 724.357 625.157C724.632 624.965 724.952 624.845 725.286 624.809L801.339 616.468L886.39 562.174C878.963 547.956 863.839 541.455 845.559 544.746C841.711 545.44 836.222 546.626 830.411 547.884C823.148 549.456 815.636 551.081 810.707 551.869C805.146 552.757 791.398 554.425 781.049 551.31L684.273 627.065Z" fill="#3B82F6"/>
<path d="M506.266 597.11C506.897 603.798 508.856 610.292 512.026 616.211C515.196 622.129 519.514 627.353 524.726 631.574L538.651 633.722C556.326 638.287 568.194 653.727 566.587 671.986H480.339L464.205 664.535L412.989 606.937L400.47 635.132L365.389 618.953L400.813 541.506L506.266 597.11Z" fill="white"/>
<path d="M566.587 674H480.339C480.049 674 479.763 673.937 479.499 673.815L463.368 666.363C463.117 666.248 462.893 666.081 462.709 665.875L413.563 610.605L402.309 635.951C402.2 636.194 402.044 636.414 401.851 636.597C401.657 636.78 401.429 636.922 401.18 637.016C400.93 637.11 400.665 637.153 400.399 637.143C400.133 637.133 399.872 637.07 399.631 636.958L364.55 620.779C364.066 620.556 363.691 620.15 363.506 619.65C363.321 619.149 363.342 618.595 363.564 618.11L398.988 540.665C399.102 540.417 399.265 540.194 399.468 540.011C399.671 539.828 399.908 539.688 400.167 539.6C400.425 539.513 400.698 539.478 400.97 539.5C401.242 539.521 401.507 539.598 401.748 539.725L507.2 595.328C507.496 595.484 507.749 595.711 507.935 595.99C508.121 596.268 508.234 596.589 508.266 596.922C508.854 603.255 510.687 609.409 513.658 615.029C516.629 620.649 520.68 625.624 525.577 629.667L538.957 631.729C539.024 631.74 539.091 631.753 539.152 631.769C558.145 636.675 570.249 653.284 568.588 672.161C568.544 672.663 568.315 673.13 567.944 673.471C567.574 673.811 567.089 674 566.587 674V674ZM480.777 669.972H564.7C565.27 653.897 554.62 639.97 538.246 635.697L524.421 633.564C524.067 633.51 523.735 633.362 523.457 633.135C512.79 624.519 505.935 612.037 504.377 598.392L401.752 544.28L368.051 617.967L399.466 632.45L411.158 606.118C411.294 605.81 411.505 605.542 411.772 605.337C412.038 605.133 412.352 604.999 412.683 604.947C413.015 604.895 413.354 604.927 413.67 605.041C413.986 605.154 414.268 605.346 414.492 605.597L465.429 662.881L480.777 669.972Z" fill="#3B82F6"/>
<path d="M658.373 372.912L789.908 541.821L679.109 628.553L570.251 488.789L593.549 341.535L658.373 372.912Z" fill="white"/>
<path d="M679.109 630.567C678.803 630.567 678.502 630.498 678.227 630.364C677.953 630.229 677.712 630.034 677.525 629.792L568.667 490.028C568.497 489.81 568.374 489.56 568.305 489.292C568.236 489.024 568.222 488.746 568.265 488.472L591.563 341.219C591.612 340.909 591.733 340.615 591.916 340.36C592.099 340.105 592.338 339.896 592.616 339.75C592.893 339.605 593.201 339.526 593.514 339.521C593.827 339.516 594.137 339.584 594.419 339.721L659.243 371.099C659.521 371.233 659.764 371.429 659.954 371.673L791.491 540.581C791.654 540.79 791.774 541.028 791.844 541.283C791.914 541.538 791.934 541.804 791.902 542.067C791.869 542.329 791.786 542.583 791.656 542.813C791.526 543.043 791.352 543.245 791.144 543.408L680.345 630.14C679.992 630.417 679.557 630.568 679.109 630.567V630.567ZM572.371 488.239L679.456 625.726L787.089 541.473L657.075 374.521L595.107 344.525L572.371 488.239ZM465.678 122.058C465.184 122.059 464.707 121.876 464.339 121.547L459.032 116.799C458.832 116.623 458.668 116.41 458.551 116.171C458.433 115.932 458.364 115.673 458.348 115.407C458.331 115.141 458.367 114.874 458.454 114.623C458.541 114.371 458.677 114.139 458.853 113.94C459.03 113.742 459.245 113.58 459.484 113.465C459.724 113.35 459.984 113.283 460.249 113.27C460.514 113.256 460.78 113.295 461.03 113.385C461.28 113.475 461.509 113.614 461.706 113.793L465.394 117.093L490.193 84.4775C490.353 84.2672 490.552 84.0905 490.78 83.9575C491.008 83.8245 491.26 83.7379 491.522 83.7026C491.783 83.6672 492.049 83.6839 492.304 83.7515C492.559 83.8192 492.798 83.9365 493.008 84.0969C493.218 84.2572 493.394 84.4575 493.527 84.6861C493.659 84.9147 493.746 85.1673 493.781 85.4295C493.816 85.6916 493.8 85.9581 493.732 86.2138C493.665 86.4695 493.548 86.7094 493.388 86.9197L467.273 121.265C467.105 121.485 466.894 121.669 466.652 121.804C466.41 121.939 466.143 122.022 465.867 122.049C465.804 122.055 465.741 122.058 465.678 122.058V122.058Z" fill="#3B82F6"/>
<path d="M505.579 120.044C507.982 120.044 509.931 118.091 509.931 115.681C509.931 113.271 507.982 111.317 505.579 111.317C503.176 111.317 501.227 113.271 501.227 115.681C501.227 118.091 503.176 120.044 505.579 120.044Z" fill="#3B82F6"/>
<path d="M271.595 296.932C263.923 307.898 259.008 320.97 259.008 335.397C259.008 370.217 284.812 400.588 318.554 404.272L455.635 404.541L387.415 534.437L506.176 597.119L509.864 597.971L514.148 595.621L634.186 366.948C639.49 357.092 642.273 346.071 642.287 334.872L380.653 303.942L271.595 296.932Z" fill="white"/>
<path d="M509.864 599.985C509.712 599.984 509.561 599.967 509.413 599.933L505.726 599.081C505.557 599.042 505.394 598.982 505.241 598.901L386.478 536.219C386.007 535.97 385.653 535.543 385.495 535.033C385.338 534.523 385.388 533.971 385.636 533.499L452.309 406.548L318.547 406.286C318.476 406.286 318.404 406.282 318.333 406.274C283.942 402.519 257 371.386 257 335.397C257 321.589 261.478 307.886 269.95 295.775C270.148 295.492 270.415 295.265 270.726 295.116C271.036 294.966 271.38 294.9 271.723 294.922L380.782 301.932C380.817 301.932 380.853 301.937 380.888 301.941L642.522 332.872C643.011 332.93 643.461 333.165 643.788 333.534C644.115 333.903 644.296 334.379 644.296 334.872C644.299 346.4 641.435 357.748 635.963 367.886L515.925 596.563C515.741 596.914 515.457 597.202 515.11 597.392L510.826 599.742C510.53 599.902 510.199 599.985 509.864 599.985ZM506.881 595.215L509.571 595.836L512.654 594.148L632.409 366.009C637.283 356.978 639.97 346.924 640.255 336.66L380.471 305.948L272.599 299.014C265.018 310.212 261.017 322.768 261.017 335.397C261.017 369.322 286.331 398.669 318.665 402.258L455.642 402.527C455.987 402.527 456.327 402.617 456.628 402.788C456.929 402.959 457.181 403.205 457.359 403.502C457.538 403.799 457.637 404.137 457.646 404.484C457.656 404.83 457.576 405.174 457.415 405.48L390.132 533.595L506.881 595.215Z" fill="#3B82F6"/>
<path d="M530.555 107.211L456.67 72.3069L464.444 56.0964C467.073 50.6079 471.758 46.383 477.478 44.3416C483.199 42.3003 489.493 42.6078 494.988 45.1972L537.5 65.269C543.348 68.028 538.808 76.1675 535.987 82.0306L530.555 107.211Z" fill="#93C5FD"/>
<path d="M530.555 107.211L509.366 97.343L522.024 70.8589C523.352 68.0726 525.721 65.9234 528.619 64.8775C531.516 63.8316 534.708 63.9732 537.503 65.2717C538.894 65.9233 540.144 66.8436 541.181 67.9799C542.218 69.1163 543.021 70.4464 543.545 71.8942C544.069 73.342 544.303 74.8792 544.234 76.4178C544.165 77.9564 543.795 79.4664 543.144 80.8613C543.144 80.8791 543.136 80.8961 543.124 80.9087C543.111 80.9213 543.094 80.9284 543.077 80.9284L530.555 107.211Z" fill="#DBEAFE"/>
<path d="M568.636 104.424C568.491 104.012 568.265 103.634 567.972 103.311C567.679 102.989 567.325 102.728 566.93 102.544L562.922 100.665C559.595 99.0738 555.776 98.8639 552.295 100.081C544.997 102.564 530.49 105.75 515.354 99.1709C515.195 99.1038 458.195 71.1516 457.764 70.9354C457.642 70.8737 457.508 70.8368 457.372 70.8268C457.235 70.8168 457.098 70.8339 456.967 70.8771C456.837 70.9204 456.717 70.9889 456.613 71.0788C456.509 71.1686 456.424 71.2781 456.363 71.401C456.301 71.5238 456.265 71.6576 456.255 71.7947C456.245 71.9318 456.262 72.0696 456.305 72.2001C456.348 72.3306 456.416 72.4513 456.506 72.5553C456.595 72.6593 456.705 72.7446 456.827 72.8063C457.368 73.0789 511.147 100.16 528.313 107.604C534.606 110.336 541.395 111.73 548.252 111.699C554.51 111.671 560.723 110.636 566.654 108.634C567.46 108.328 568.12 107.729 568.505 106.956C568.881 106.163 568.928 105.252 568.636 104.424V104.424Z" fill="#3B82F6"/>
<path d="M334.902 261.057L402.546 329.288L404.018 330.765C408.447 335.201 413.742 338.671 419.572 340.959C425.401 343.246 431.639 344.301 437.894 344.057L627.826 337.209V252.089L459.883 244.318L444.954 229.338" fill="white"/>
<path d="M436.213 346.101C423.615 346.102 411.529 341.1 402.598 332.189L401.126 330.712L333.478 262.476C333.289 262.289 333.14 262.067 333.038 261.822C332.936 261.576 332.883 261.313 332.883 261.047C332.883 260.782 332.935 260.519 333.037 260.273C333.138 260.028 333.287 259.805 333.475 259.618C333.663 259.43 333.886 259.282 334.132 259.181C334.377 259.081 334.64 259.03 334.905 259.032C335.17 259.034 335.432 259.088 335.676 259.192C335.92 259.296 336.141 259.447 336.326 259.637L403.97 327.868L405.438 329.34C409.679 333.57 414.742 336.881 420.313 339.066C425.883 341.252 431.842 342.265 437.82 342.044L625.818 335.264V254.011L459.791 246.33C459.291 246.307 458.817 246.098 458.463 245.742L443.533 230.762C443.162 230.383 442.955 229.872 442.957 229.341C442.96 228.809 443.172 228.301 443.546 227.925C443.921 227.55 444.429 227.338 444.959 227.336C445.489 227.334 445.998 227.542 446.375 227.915L460.75 242.343L627.915 250.077C628.432 250.101 628.919 250.323 629.276 250.698C629.633 251.074 629.832 251.572 629.832 252.091V337.211C629.832 337.733 629.63 338.235 629.269 338.61C628.908 338.986 628.415 339.207 627.895 339.225L437.963 346.073C437.38 346.092 436.797 346.101 436.213 346.101V346.101Z" fill="#3B82F6"/>
<path d="M659.52 322.133C655.676 326.837 650.84 330.629 645.36 333.236C639.88 335.843 633.892 337.2 627.826 337.209C604.903 337.209 586.318 318.154 586.318 294.649C586.318 271.144 604.903 252.089 627.826 252.089C634.968 252.081 641.984 253.962 648.169 257.542" fill="white"/>
<path d="M627.826 339.223C603.832 339.223 584.31 319.227 584.31 294.649C584.31 270.071 603.832 250.075 627.826 250.075C635.318 250.077 642.678 252.05 649.172 255.796C649.4 255.929 649.601 256.105 649.761 256.315C649.922 256.524 650.04 256.764 650.108 257.02C650.177 257.275 650.194 257.542 650.16 257.804C650.125 258.066 650.04 258.319 649.908 258.549C649.776 258.778 649.601 258.979 649.391 259.14C649.182 259.301 648.943 259.419 648.688 259.488C648.433 259.556 648.167 259.574 647.906 259.54C647.644 259.505 647.392 259.419 647.163 259.287C641.28 255.893 634.611 254.105 627.823 254.103C606.043 254.103 588.324 272.295 588.324 294.65C588.324 317.004 606.043 335.196 627.823 335.196C633.593 335.185 639.289 333.892 644.502 331.412C649.715 328.932 654.316 325.325 657.974 320.851C658.141 320.642 658.347 320.469 658.581 320.342C658.815 320.214 659.072 320.135 659.337 320.108C659.602 320.081 659.869 320.107 660.124 320.185C660.379 320.262 660.616 320.39 660.821 320.56C661.026 320.731 661.195 320.94 661.319 321.177C661.442 321.413 661.518 321.672 661.541 321.938C661.564 322.204 661.534 322.472 661.453 322.726C661.371 322.98 661.24 323.216 661.068 323.419C657.034 328.35 651.961 332.324 646.214 335.057C640.466 337.789 634.187 339.212 627.826 339.223V339.223Z" fill="#3B82F6"/>
<path d="M633.986 258.802C646.438 257.661 667.46 255.848 680.849 255.042C705.352 253.566 772.636 267.327 768.284 283.573C765.606 293.374 748.802 286.325 715.663 281.559C744.249 290.957 764.535 299.885 760.652 309.686C756.769 319.487 727.914 309.82 705.955 302.369C717.671 313.445 734.073 327.945 729.923 334.927C723.897 344.996 709.302 333.249 698.925 326.469C675.895 311.432 665.987 320.561 649.384 325.864C641.819 328.281 632.379 328.013 623.073 324.723C615.867 322.11 609.818 317.02 606.001 310.357C597.7 296.126 599.699 263.349 633.986 258.802Z" fill="white"/>
<path d="M723.188 340.855C716.627 340.855 708.68 335.475 701.58 330.668C700.286 329.792 699.029 328.94 697.831 328.156C679.812 316.392 670.429 320.044 658.55 324.666C655.844 325.719 653.046 326.808 649.996 327.782C641.761 330.412 631.965 329.997 622.408 326.621C614.753 323.842 608.326 318.436 604.265 311.36C599.665 303.476 597.518 289.217 603.687 276.572C607.443 268.873 615.705 259.194 633.727 256.803L633.807 256.795C648.252 255.471 668.166 253.786 680.733 253.031C701.726 251.766 756.55 261.843 768.107 276.049C770.241 278.673 770.954 281.38 770.227 284.094C768.669 289.795 763.47 290.487 759.694 290.513C754.691 290.548 747.727 289.237 738.899 287.574L737.749 287.358C752.376 293.276 759.828 298.288 762.271 303.518C762.799 304.586 763.094 305.754 763.137 306.946C763.181 308.137 762.971 309.324 762.522 310.428C758.679 320.128 738.827 315.324 714.004 307.181C725.498 318.087 735.841 328.911 731.652 335.957C731.01 337.123 730.129 338.141 729.068 338.943C728.006 339.744 726.788 340.312 725.493 340.61C724.736 340.775 723.963 340.858 723.188 340.855V340.855ZM675.995 316.196C682.662 316.196 690.235 318.392 700.021 324.782C701.298 325.621 702.567 326.471 703.828 327.333C710.749 332.02 719.363 337.852 724.62 336.683C725.38 336.5 726.092 336.157 726.71 335.676C727.327 335.195 727.836 334.588 728.201 333.895C731.202 328.846 716.846 315.367 707.345 306.442C706.421 305.576 705.498 304.708 704.577 303.838C704.244 303.523 704.028 303.102 703.966 302.647C703.903 302.192 703.998 301.729 704.234 301.335C704.47 300.942 704.833 300.641 705.264 300.482C705.694 300.324 706.165 300.318 706.599 300.465C723.71 306.272 755.562 317.08 758.785 308.946C759.03 308.353 759.143 307.713 759.116 307.072C759.089 306.43 758.923 305.802 758.629 305.231C754.999 297.458 733.426 289.523 715.037 283.476C714.559 283.319 714.158 282.988 713.912 282.549C713.666 282.11 713.593 281.594 713.707 281.104C713.822 280.614 714.115 280.184 714.53 279.9C714.945 279.616 715.451 279.498 715.948 279.569C725.069 280.881 732.807 282.336 739.635 283.621C757.149 286.915 764.95 288.156 766.348 283.044C766.723 281.642 766.281 280.185 764.991 278.6C754.964 266.274 703.139 255.72 680.971 257.056C668.461 257.809 648.623 259.486 634.21 260.808C617.98 262.973 610.614 271.539 607.292 278.348C602.018 289.156 603.523 302.123 607.736 309.344C611.32 315.596 616.995 320.374 623.756 322.833C632.353 325.872 641.477 326.281 648.775 323.949C651.707 323.013 654.446 321.947 657.094 320.916C663.367 318.47 669.212 316.196 675.995 316.196V316.196ZM455.636 406.555C455.179 406.554 454.736 406.398 454.38 406.112C454.023 405.825 453.775 405.426 453.675 404.979L450.327 389.942C450.211 389.421 450.306 388.874 450.592 388.424C450.878 387.973 451.33 387.654 451.85 387.538C452.37 387.421 452.914 387.517 453.364 387.803C453.814 388.09 454.132 388.543 454.248 389.065L456.457 398.987L463.795 385.964C464.059 385.502 464.494 385.164 465.006 385.023C465.517 384.882 466.064 384.95 466.525 385.212C466.987 385.474 467.327 385.908 467.471 386.42C467.615 386.932 467.551 387.48 467.293 387.945L457.384 405.533C457.209 405.843 456.955 406.101 456.648 406.281C456.34 406.46 455.991 406.555 455.636 406.555V406.555ZM506.956 603.446H506.916C506.505 603.446 506.103 603.319 505.766 603.083C505.429 602.847 505.173 602.512 505.031 602.125C504.89 601.738 504.87 601.317 504.976 600.918C505.081 600.519 505.305 600.163 505.619 599.896C509.609 596.505 545.025 566.904 559.924 571.765C562.127 572.484 564.988 574.311 566.11 578.938C566.59 580.724 566.637 582.599 566.249 584.407C565.861 586.215 565.049 587.904 563.879 589.334C552.964 603.246 509.346 603.446 506.956 603.446V603.446ZM556.029 575.216C545.278 575.216 524.284 590.063 512.691 599.295C527.447 598.706 553.664 595.839 560.72 586.843C561.508 585.89 562.054 584.76 562.313 583.549C562.571 582.338 562.534 581.083 562.204 579.89C561.639 577.56 560.519 576.198 558.678 575.594C557.821 575.33 556.929 575.202 556.032 575.216H556.029Z" fill="#3B82F6"/>
<path d="M555.406 624.805C537.154 624.805 507.166 604.061 505.771 603.086C505.433 602.851 505.176 602.517 505.033 602.129C504.891 601.742 504.87 601.321 504.975 600.921C505.079 600.522 505.303 600.165 505.617 599.898C505.931 599.63 506.319 599.466 506.728 599.428C511.942 598.931 557.937 594.944 567.384 607.462C568.777 609.308 570.081 612.438 568.372 616.86C567.75 618.594 566.724 620.155 565.379 621.413C564.035 622.671 562.411 623.59 560.643 624.093C558.942 624.588 557.177 624.828 555.406 624.805V624.805ZM512.897 602.987C525.373 610.949 548.556 623.589 559.471 620.24C560.655 619.909 561.742 619.297 562.64 618.455C563.537 617.613 564.219 616.566 564.626 615.403C565.485 613.181 565.343 611.429 564.181 609.89C558.145 601.893 529.033 601.976 512.897 602.989V602.987ZM804.498 552.128C797.765 552.125 791.037 551.78 784.339 551.094C783.93 551.048 783.545 550.878 783.236 550.606C782.927 550.334 782.709 549.974 782.611 549.573C782.513 549.173 782.539 548.752 782.687 548.368C782.835 547.983 783.097 547.653 783.438 547.423C787.775 544.49 826.214 518.964 840.494 525.434C842.604 526.391 845.247 528.522 845.857 533.245C846.139 535.073 845.981 536.942 845.398 538.696C844.814 540.451 843.822 542.04 842.503 543.333C835.457 550.523 818.355 552.128 804.498 552.128V552.128ZM790.538 547.603C805.267 548.641 831.639 548.677 839.638 540.51C840.525 539.649 841.192 538.585 841.582 537.41C841.971 536.235 842.071 534.983 841.874 533.761C841.567 531.383 840.602 529.904 838.839 529.105C829.714 524.97 804.206 538.988 790.538 547.603V547.603Z" fill="#3B82F6"/>
<path d="M832.529 577.791C814.524 577.791 784.577 551.779 783.241 550.61C782.931 550.339 782.711 549.978 782.612 549.578C782.513 549.177 782.539 548.756 782.686 548.371C782.834 547.986 783.096 547.655 783.437 547.424C783.778 547.193 784.181 547.073 784.592 547.079C789.828 547.159 835.982 548.255 844.006 561.737C845.189 563.725 846.142 566.98 843.959 571.188C843.151 572.844 841.96 574.283 840.487 575.385C839.013 576.488 837.298 577.222 835.485 577.528C834.51 577.708 833.521 577.796 832.529 577.791V577.791ZM790.334 551.297C801.864 560.583 823.522 575.697 834.739 573.57C835.953 573.372 837.101 572.884 838.086 572.146C839.071 571.407 839.863 570.442 840.396 569.33C841.492 567.216 841.543 565.459 840.556 563.801C835.429 555.185 806.483 552.066 790.334 551.297ZM476.858 264.461C476.585 264.462 476.314 264.406 476.063 264.298C475.812 264.189 475.585 264.03 475.398 263.83L456.652 243.942C456.287 243.554 456.089 243.036 456.105 242.502C456.12 241.968 456.346 241.462 456.733 241.095C457.12 240.728 457.637 240.53 458.169 240.546C458.702 240.561 459.206 240.787 459.572 241.175L478.318 261.064C478.587 261.35 478.767 261.709 478.836 262.096C478.904 262.484 478.858 262.883 478.703 263.244C478.547 263.606 478.29 263.914 477.962 264.13C477.634 264.346 477.251 264.461 476.858 264.461V264.461Z" fill="#3B82F6"/>
<path d="M519.906 126.048L521.981 146.426L508.458 144.267" fill="white"/>
<path d="M521.981 148.44C521.875 148.44 521.77 148.432 521.665 148.415L508.142 146.256C507.881 146.215 507.631 146.122 507.407 145.984C507.182 145.845 506.986 145.664 506.832 145.45C506.677 145.236 506.565 144.993 506.504 144.736C506.443 144.479 506.433 144.212 506.474 143.951C506.516 143.689 506.608 143.439 506.746 143.214C506.884 142.988 507.065 142.792 507.278 142.637C507.492 142.482 507.734 142.37 507.991 142.309C508.247 142.247 508.513 142.237 508.774 142.278L519.718 144.024L517.91 126.25C517.883 125.986 517.907 125.72 517.983 125.466C518.058 125.213 518.183 124.976 518.349 124.771C518.516 124.565 518.721 124.395 518.954 124.269C519.186 124.143 519.441 124.065 519.704 124.038C519.967 124.011 520.232 124.036 520.485 124.112C520.738 124.188 520.974 124.314 521.178 124.481C521.383 124.649 521.552 124.855 521.677 125.088C521.802 125.322 521.88 125.577 521.906 125.841L523.982 146.22C524.01 146.5 523.979 146.782 523.891 147.05C523.804 147.317 523.661 147.563 523.473 147.772C523.285 147.98 523.055 148.147 522.799 148.261C522.542 148.376 522.265 148.435 521.984 148.435L521.981 148.44ZM498.081 163.88C497.969 163.88 497.857 163.871 497.746 163.853L496.139 163.584C492.184 162.987 488.443 161.397 485.265 158.962C482.087 156.527 479.575 153.326 477.961 149.656L476.226 145.773C476.008 145.286 475.992 144.732 476.182 144.232C476.371 143.733 476.751 143.33 477.237 143.111C477.723 142.893 478.276 142.877 478.774 143.067C479.271 143.257 479.674 143.638 479.892 144.125L481.632 148.019C482.976 151.075 485.07 153.74 487.718 155.766C490.365 157.792 493.482 159.114 496.776 159.607L498.406 159.879C498.904 159.961 499.352 160.228 499.663 160.627C499.973 161.026 500.122 161.527 500.081 162.031C500.04 162.535 499.811 163.005 499.44 163.348C499.069 163.69 498.583 163.88 498.079 163.88H498.081ZM460.924 182.139C460.723 182.139 460.523 182.109 460.331 182.049C453.281 179.893 446.906 175.946 441.824 170.592C436.743 165.238 433.127 158.658 431.329 151.491C431.26 151.233 431.243 150.965 431.279 150.702C431.314 150.438 431.402 150.184 431.536 149.954C431.67 149.724 431.848 149.524 432.06 149.363C432.272 149.203 432.514 149.087 432.771 149.021C433.028 148.955 433.295 148.94 433.558 148.979C433.821 149.017 434.073 149.107 434.301 149.244C434.529 149.38 434.727 149.561 434.885 149.775C435.043 149.989 435.156 150.233 435.22 150.491C436.85 156.99 440.129 162.957 444.736 167.811C449.344 172.666 455.124 176.245 461.517 178.2C461.976 178.342 462.37 178.644 462.626 179.052C462.882 179.461 462.983 179.947 462.912 180.424C462.84 180.901 462.6 181.336 462.235 181.651C461.871 181.965 461.406 182.138 460.925 182.138L460.924 182.139Z" fill="#3B82F6"/>
<path d="M446.062 120.447C440.765 120.447 435.638 118.572 431.584 115.154C427.53 111.735 424.809 106.992 423.901 101.759C422.993 96.5263 423.955 91.1401 426.619 86.5492C429.283 81.9582 433.477 78.4571 438.462 76.6624C443.447 74.8678 448.905 74.8948 453.872 76.7387C458.84 78.5826 462.999 82.1251 465.617 86.7422C468.235 91.3593 469.145 96.7548 468.185 101.978C467.225 107.202 464.458 111.918 460.371 115.296" fill="white"/>
<path d="M446.062 122.461C440.292 122.461 434.707 120.419 430.291 116.695C425.876 112.971 422.912 107.805 421.922 102.105C420.933 96.4049 421.981 90.5378 424.883 85.5369C427.784 80.536 432.352 76.7222 437.783 74.7671C443.213 72.8121 449.157 72.8414 454.569 74.8498C459.98 76.8582 464.51 80.7168 467.362 85.746C470.215 90.7752 471.205 96.6524 470.16 102.342C469.115 108.032 466.101 113.169 461.649 116.85C461.238 117.19 460.709 117.352 460.179 117.301C459.649 117.25 459.16 116.99 458.821 116.578C458.482 116.166 458.32 115.636 458.371 115.104C458.422 114.572 458.681 114.083 459.092 113.743C462.815 110.666 465.335 106.371 466.209 101.614C467.083 96.857 466.255 91.9432 463.871 87.7382C461.487 83.5332 457.699 80.3069 453.175 78.6275C448.651 76.9481 443.681 76.9234 439.14 78.5577C434.6 80.1921 430.781 83.3807 428.355 87.5618C425.929 91.7428 425.052 96.6482 425.88 101.414C426.707 106.179 429.185 110.499 432.877 113.613C436.569 116.726 441.238 118.433 446.062 118.433C446.595 118.433 447.105 118.645 447.482 119.023C447.859 119.401 448.07 119.913 448.07 120.447C448.07 120.981 447.859 121.493 447.482 121.871C447.105 122.249 446.595 122.461 446.062 122.461V122.461Z" fill="#3B82F6"/>
<path d="M451.083 110.713C450.655 110.713 450.239 110.576 449.894 110.323L436.036 100.119C435.606 99.8026 435.32 99.3283 435.239 98.8002C435.158 98.2722 435.29 97.7336 435.606 97.303C435.921 96.8724 436.394 96.5851 436.921 96.5042C437.447 96.4233 437.984 96.5555 438.414 96.8717L447.949 103.894L444.437 88.1952C444.375 87.9357 444.366 87.6665 444.408 87.4032C444.451 87.1399 444.546 86.8878 444.687 86.6614C444.828 86.4351 445.012 86.2391 445.229 86.0848C445.446 85.9305 445.691 85.821 445.951 85.7626C446.211 85.7042 446.479 85.6981 446.741 85.7447C447.003 85.7912 447.253 85.8895 447.477 86.0339C447.701 86.1782 447.894 86.3657 448.045 86.5854C448.196 86.8051 448.302 87.0527 448.356 87.3138L453.043 108.258C453.109 108.553 453.108 108.859 453.04 109.153C452.972 109.447 452.839 109.722 452.651 109.958C452.463 110.193 452.224 110.384 451.953 110.515C451.681 110.645 451.384 110.713 451.083 110.713V110.713Z" fill="#3B82F6"/>
</g>
<g clip-path="url(#clip5_1_2)">
<path d="M186.961 673C163.921 654.701 149.095 628.007 145.742 598.785C142.39 569.564 150.785 540.208 169.083 517.172C207.167 469.28 277.113 461.261 325 499.301L275.082 562.076C268.69 557.022 260.552 554.708 252.455 555.642C244.358 556.577 236.963 560.683 231.891 567.061C226.83 573.448 224.513 581.582 225.448 589.675C226.383 597.769 230.494 605.161 236.878 610.227L186.961 673Z" fill="#DBEAFE"/>
<path d="M259.257 475.361C278.421 475.361 293.957 459.834 293.957 440.68C293.957 421.527 278.421 406 259.257 406C240.093 406 224.557 421.527 224.557 440.68C224.557 459.834 240.093 475.361 259.257 475.361Z" fill="#93C5FD"/>
</g>
<g clip-path="url(#clip6_1_2)">
<path d="M782.5 138.981C806.514 138.981 825.981 119.514 825.981 95.5C825.981 71.4862 806.514 52.0192 782.5 52.0192C758.486 52.0192 739.019 71.4862 739.019 95.5C739.019 119.514 758.486 138.981 782.5 138.981Z" fill="white"/>
<path d="M782.5 141C773.501 141 764.704 138.331 757.222 133.332C749.739 128.332 743.907 121.226 740.463 112.912C737.02 104.598 736.119 95.4495 737.874 86.6234C739.63 77.7972 743.963 69.6899 750.327 63.3266C756.69 56.9633 764.797 52.6299 773.623 50.8742C782.449 49.1186 791.598 50.0197 799.912 53.4634C808.226 56.9072 815.332 62.7391 820.332 70.2215C825.331 77.704 828 86.5009 828 95.5C827.986 107.563 823.188 119.128 814.658 127.658C806.128 136.188 794.563 140.986 782.5 141V141ZM782.5 54.0384C774.3 54.0384 766.283 56.4701 759.465 61.026C752.647 65.5818 747.333 72.0572 744.194 79.6333C741.056 87.2094 740.235 95.546 741.835 103.589C743.435 111.631 747.384 119.019 753.182 124.818C758.981 130.616 766.368 134.565 774.411 136.165C782.454 137.765 790.79 136.944 798.367 133.805C805.943 130.667 812.418 125.353 816.974 118.535C821.53 111.716 823.961 103.7 823.961 95.5C823.949 84.5075 819.577 73.9688 811.804 66.196C804.031 58.4232 793.492 54.0509 782.5 54.0384V54.0384Z" fill="#3B82F6"/>
<path d="M794.144 94.5577C796.291 93.9017 798.17 92.5726 799.503 90.7666C800.836 88.9606 801.553 86.7736 801.548 84.5288C801.604 82.7382 801.112 80.9732 800.137 79.4697C799.163 77.9662 797.753 76.796 796.096 76.1154L797.644 68.0384H791.25L789.971 74.6346C789.433 74.6346 788.894 74.5673 788.423 74.5673H780.75L781.961 67.9711H775.567L774.356 74.5673H768.365L766.548 80.6923H772.067L766.01 109.029H761.298L759.481 115.154H766.548L765.404 121.279H771.798L772.942 115.154H782.298L781.154 121.279H787.548L788.827 114.548C793.942 113.471 797.442 110.779 798.856 104.519C799.347 102.57 799.146 100.511 798.286 98.6935C797.427 96.8764 795.963 95.4144 794.144 94.5577V94.5577ZM791.99 104.115C791.115 108.154 787.346 109.029 781.961 109.029H772.74L775.096 97.7884H784.385C789.702 97.7884 793.067 99.2692 791.99 104.115ZM784.856 91.6634H776.442L778.798 80.7596H787.144C791.25 80.7596 794.885 81.6346 794.885 85.2019C794.885 89.1731 792.125 91.6634 784.856 91.6634V91.6634Z" fill="#93C5FD"/>
</g>
<g clip-path="url(#clip7_1_2)">
<path d="M876 163.18C891.011 163.18 903.18 151.011 903.18 136C903.18 120.989 891.011 108.82 876 108.82C860.989 108.82 848.82 120.989 848.82 136C848.82 151.011 860.989 163.18 876 163.18Z" fill="white"/>
<path d="M876 165C870.264 165 864.657 163.299 859.888 160.113C855.119 156.926 851.402 152.397 849.208 147.098C847.013 141.799 846.438 135.968 847.557 130.342C848.676 124.717 851.438 119.55 855.494 115.494C859.55 111.438 864.717 108.676 870.342 107.557C875.968 106.438 881.799 107.013 887.098 109.208C892.397 111.402 896.926 115.119 900.113 119.888C903.299 124.657 905 130.264 905 136C904.991 143.689 901.933 151.06 896.496 156.496C891.06 161.933 883.689 164.991 876 165V165ZM876 110.64C870.984 110.64 866.081 112.128 861.911 114.914C857.74 117.701 854.49 121.661 852.571 126.295C850.651 130.929 850.149 136.028 851.127 140.947C852.106 145.867 854.521 150.385 858.068 153.932C861.615 157.479 866.133 159.894 871.053 160.873C875.972 161.851 881.071 161.349 885.705 159.429C890.339 157.51 894.299 154.26 897.086 150.089C899.873 145.919 901.36 141.016 901.36 136C901.352 129.276 898.678 122.83 893.924 118.076C889.17 113.322 882.724 110.648 876 110.64V110.64Z" fill="#3B82F6"/>
<path d="M883.341 135.393C884.695 134.985 885.881 134.15 886.723 133.013C887.564 131.876 888.017 130.498 888.013 129.084C888.045 127.964 887.737 126.861 887.131 125.919C886.525 124.977 885.648 124.24 884.615 123.805L885.586 118.77H881.582L880.793 122.895C880.49 122.895 880.126 122.835 879.822 122.835H875.029L875.818 118.709H871.814L871.025 122.835H867.264L866.172 126.657H869.63L865.868 144.372H862.956L861.864 148.255H866.293L865.565 152.077H869.569L870.297 148.255H876.061L875.333 152.077H879.337L880.126 147.831C883.341 147.163 885.525 145.464 886.374 141.582C886.607 140.361 886.437 139.097 885.89 137.981C885.343 136.865 884.449 135.957 883.341 135.393V135.393ZM882.006 141.339C881.46 143.887 879.094 144.433 875.757 144.433H869.933L871.389 137.395H877.213C880.55 137.395 882.674 138.366 882.006 141.339V141.339ZM877.517 133.573H872.238L873.695 126.718H878.912C881.46 126.718 883.766 127.264 883.766 129.508C883.766 131.996 882.067 133.573 877.517 133.573V133.573Z" fill="#DBEAFE"/>
</g>
<g clip-path="url(#clip8_1_2)">
<path d="M830.051 227C829.719 227 829.391 226.917 829.097 226.76C828.803 226.602 828.55 226.375 828.362 226.096C828.174 225.817 828.055 225.496 828.015 225.161C827.976 224.825 828.018 224.485 828.137 224.169L848.034 171.34C848.125 171.076 848.266 170.833 848.45 170.626C848.635 170.419 848.858 170.251 849.107 170.134C849.356 170.016 849.626 169.95 849.901 169.941C850.175 169.931 850.449 169.978 850.706 170.078C850.962 170.178 851.196 170.329 851.394 170.523C851.592 170.716 851.75 170.949 851.858 171.205C851.966 171.462 852.022 171.738 852.023 172.018C852.024 172.297 851.97 172.574 851.863 172.831L831.966 225.661C831.817 226.054 831.555 226.393 831.213 226.633C830.871 226.872 830.466 227 830.051 227V227Z" fill="#3B82F6"/>
</g>
<path d="M1178.03 673.175H114.968C113.853 673.175 113 672.263 113 671.07C113 669.877 113.853 668.965 114.968 668.965H1178.03C1179.15 668.965 1180 669.877 1180 671.07C1180 672.263 1179.15 673.175 1178.03 673.175Z" fill="#3B82F6"/>
<defs>
<clipPath id="clip0_1_2">
<rect width="434" height="341" fill="white" transform="translate(737 332)"/>
</clipPath>
<clipPath id="clip1_1_2">
<rect width="294" height="135" fill="white" transform="translate(683 209)"/>
</clipPath>
<clipPath id="clip2_1_2">
<rect width="250" height="473" fill="white" transform="translate(209 200)"/>
</clipPath>
<clipPath id="clip3_1_2">
<rect width="31" height="126" fill="white" transform="translate(781 144)"/>
</clipPath>
<clipPath id="clip4_1_2">
<rect width="634" height="631" fill="white" transform="translate(257 43)"/>
</clipPath>
<clipPath id="clip5_1_2">
<rect width="180" height="267" fill="white" transform="translate(145 406)"/>
</clipPath>
<clipPath id="clip6_1_2">
<rect width="91" height="91" fill="white" transform="translate(737 50)"/>
</clipPath>
<clipPath id="clip7_1_2">
<rect width="58" height="58" fill="white" transform="translate(847 107)"/>
</clipPath>
<clipPath id="clip8_1_2">
<rect width="24" height="57" fill="white" transform="translate(828 170)"/>
</clipPath>
</defs>
</svg>
